<?xml version="1.0" encoding="UTF-8" standalone="no"?><svg xmlns="http://www.w3.org/2000/svg" xmlns:xlink="http://www.w3.org/1999/xlink" fill="#000000" height="231.8" preserveAspectRatio="xMidYMid meet" version="1.1" viewBox="137.3 96.7 149.8 231.8" width="149.8" zoomAndPan="magnify">
 <g id="surface1">
  <g id="change1_1"><path d="m284.56 171.67c0-5.29-4.02-9.58-8.98-9.58h-0.16c-0.51-2.79-2.15-5.15-4.38-6.51-0.01-1.19-0.22-2.32-0.6-3.37 1.32-1.67 2.12-3.82 2.12-6.17 0-5.3-4.02-9.59-8.97-9.59-0.06 0-0.12 0.01-0.18 0.01-0.69-3.84-3.52-6.87-7.12-7.59 0.03-0.34 0.05-0.67 0.05-1.02 0-1.2-0.22-2.35-0.6-3.41 1.32-1.67 2.12-3.82 2.12-6.17 0-5.3-4.02-9.59-8.98-9.59-0.06 0-0.11 0-0.17 0.01-0.8-4.42-4.43-7.77-8.81-7.77-3.95 0-7.29 2.73-8.49 6.51-0.16 0-0.32-0.02-0.48-0.02-1.12 0-2.18 0.22-3.16 0.62-1.23-0.67-2.62-1.06-4.09-1.06-0.06 0-0.11 0.01-0.17 0.01-0.8-4.43-4.44-7.765-8.81-7.765-3.95 0-7.3 2.725-8.5 6.515-0.16-0.02-0.32-0.03-0.48-0.03-3.59 0-6.68 2.26-8.11 5.51-1.08-0.49-2.26-0.76-3.5-0.76-0.06 0-0.11 0.01-0.16 0.01-0.8-4.42-4.45-7.76-8.82-7.76-3.95 0-7.29 2.73-8.49 6.51-0.16-0.01-0.32-0.03-0.48-0.03-4.96 0-8.98 4.3-8.98 9.59 0 3.31 1.57 6.23 3.95 7.95-0.74 1.4-1.18 3.01-1.18 4.74 0 0.06 0.01 0.11 0.01 0.17-0.02 0.02-0.04 0.04-0.06 0.07-1.63-1.85-3.94-3-6.51-3-3.94 0-7.29 2.72-8.5 6.51-0.16-0.01-0.32-0.03-0.48-0.03-4.95 0-8.97 4.29-8.97 9.59 0 3.3 1.56 6.22 3.95 7.94-0.75 1.4-1.18 3.02-1.18 4.74 0 1.19 0.21 2.32 0.58 3.37h-0.08c-4.96 0-7.33 6.22-7.8 9.16-0.39 2.51-0.7 6.9 1.68 8.62-0.74 1.4-0.08 2.76-0.08 4.49 0 5.3 4.02 9.59 8.98 9.59 3.17 0 5.95-1.77 7.55-4.41 1.6 1.59 3.75 2.57 6.11 2.57 3.29 0 6.15-1.89 7.72-4.7 1.63 1.85 3.95 3.01 6.52 3.01 3.17 0 5.95-1.76 7.55-4.41 1.6 1.6 3.75 2.58 6.11 2.58 2.97 0 5.59-1.54 7.22-3.91 1.39 3.38 4.55 5.74 8.22 5.74 3.17 0 5.96-1.76 7.56-4.41 1.6 1.6 3.74 2.58 6.11 2.58 2.32 0 4.43-0.95 6.02-2.49 0.76 4.46 4.42 7.85 8.82 7.85 3.17 0 5.95-1.77 7.55-4.41 1.6 1.59 3.75 2.57 6.11 2.57 1.27 0 2.48-0.28 3.58-0.79 1.61 1.63 3.77 2.63 6.16 2.63 3.17 0 5.96-1.77 7.55-4.41 1.6 1.59 3.75 2.57 6.12 2.57 4.95 0 8.97-4.29 8.97-9.58 0-1.21-0.21-2.35-0.59-3.41 1.31-1.67 2.11-3.83 2.11-6.18" fill="#ff9201"/></g>
  <path d="m2845.6 2535.3c0 52.9-40.2 95.8-89.8 95.8h-1.6c-5.1 27.9-21.5 51.5-43.8 65.1-0.1 11.9-2.2 23.2-6 33.7 13.2 16.7 21.2 38.2 21.2 61.7 0 53-40.2 95.9-89.7 95.9-0.6 0-1.2-0.1-1.8-0.1-6.9 38.4-35.2 68.7-71.2 75.9 0.3 3.4 0.5 6.7 0.5 10.2 0 12-2.2 23.5-6 34.1 13.2 16.7 21.2 38.2 21.2 61.7 0 53-40.2 95.9-89.8 95.9-0.6 0-1.1 0-1.7-0.1-8 44.2-44.3 77.7-88.1 77.7-39.5 0-72.9-27.3-84.9-65.1-1.6 0-3.2 0.2-4.8 0.2-11.2 0-21.8-2.2-31.6-6.2-12.3 6.7-26.2 10.6-40.9 10.6-0.6 0-1.1-0.1-1.7-0.1-8 44.3-44.4 77.7-88.1 77.7-39.5 0-73-27.3-85-65.2-1.6 0.2-3.2 0.3-4.8 0.3-35.9 0-66.8-22.6-81.1-55.1-10.8 4.9-22.6 7.6-35 7.6-0.6 0-1.1-0.1-1.6-0.1-8 44.2-44.5 77.6-88.2 77.6-39.5 0-72.9-27.3-84.9-65.1-1.6 0.1-3.2 0.3-4.8 0.3-49.6 0-89.8-43-89.8-95.9 0-33.1 15.7-62.3 39.5-79.5-7.4-14-11.8-30.1-11.8-47.4 0-0.6 0.1-1.1 0.1-1.7-0.2-0.2-0.4-0.4-0.6-0.7-16.3 18.5-39.4 30-65.1 30-39.4 0-72.9-27.2-85-65.1-1.6 0.1-3.2 0.3-4.8 0.3-49.5 0-89.7-42.9-89.7-95.9 0-33 15.6-62.2 39.5-79.4-7.5-14-11.8-30.2-11.8-47.4 0-11.9 2.1-23.2 5.8-33.7h-0.8c-49.6 0-73.3-62.2-78-91.6-3.9-25.1-7-69 16.8-86.2-7.4-14-0.8-27.6-0.8-44.9 0-53 40.2-95.9 89.8-95.9 31.7 0 59.5 17.7 75.5 44.1 16-15.9 37.5-25.7 61.1-25.7 32.9 0 61.5 18.9 77.2 47 16.3-18.5 39.5-30.1 65.2-30.1 31.7 0 59.5 17.6 75.5 44.1 16-16 37.5-25.8 61.1-25.8 29.7 0 55.9 15.4 72.2 39.1 13.9-33.8 45.5-57.4 82.2-57.4 31.7 0 59.6 17.6 75.6 44.1 16-16 37.4-25.8 61.1-25.8 23.2 0 44.3 9.5 60.2 24.9 7.6-44.6 44.2-78.5 88.2-78.5 31.7 0 59.5 17.7 75.5 44.1 16-15.9 37.5-25.7 61.1-25.7 12.7 0 24.8 2.8 35.8 7.9 16.1-16.3 37.7-26.3 61.6-26.3 31.7 0 59.6 17.7 75.5 44.1 16-15.9 37.5-25.7 61.2-25.7 49.5 0 89.7 42.9 89.7 95.8 0 12.1-2.1 23.5-5.9 34.1 13.1 16.7 21.1 38.3 21.1 61.8zm0 0" fill="none" stroke="#000000" stroke-linecap="round" stroke-linejoin="round" stroke-miterlimit="10" stroke-width="50" transform="matrix(.1 0 0 -.1 0 425.2)"/>
  <g id="change2_1"><path d="m272.62 183.44c-4.34 0-8.1-2.61-10-6.42-1.9 3.81-5.67 6.42-10.01 6.42s-8.11-2.61-10-6.42c-1.9 3.81-5.67 6.42-10.01 6.42s-8.11-2.61-10.01-6.42c-1.89 3.81-5.66 6.42-10 6.42s-8.11-2.61-10.01-6.42c-1.9 3.81-5.67 6.42-10.01 6.42s-8.1-2.61-10-6.42c-1.9 3.81-5.67 6.42-10.01 6.42s-8.1-2.61-10.01-6.42c-1.89 3.81-5.66 6.42-10 6.42-5.28 0-10.63-3.58-11.89-8.79l10.1 151.33h123.65l9.78-151.6c-1.49 4.89-6.28 9.06-11.57 9.06" fill="#ffb222"/></g>
  <path d="m2726.2 2417.6c-43.4 0-81 26.1-100 64.2-19-38.1-56.7-64.2-100.1-64.2s-81.1 26.1-100 64.2c-19-38.1-56.7-64.2-100.1-64.2s-81.1 26.1-100.1 64.2c-18.9-38.1-56.6-64.2-100-64.2s-81.1 26.1-100.1 64.2c-19-38.1-56.7-64.2-100.1-64.2s-81 26.1-100 64.2c-19-38.1-56.7-64.2-100.1-64.2s-81 26.1-100.1 64.2c-18.9-38.1-56.6-64.2-100-64.2-52.8 0-106.3 35.8-118.9 87.9l101-1513.3 1236.5-0.04 97.8 1516c-14.9-48.9-62.8-90.6-115.7-90.6zm0 0" fill="none" stroke="#000000" stroke-linecap="round" stroke-linejoin="round" stroke-miterlimit="10" stroke-width="50" transform="matrix(.1 0 0 -.1 0 425.2)"/>
  <g id="change3_1"><path d="m1625.5 2481.8l38-1489.6" fill="#faf5a3" stroke="#000000" stroke-linecap="round" stroke-linejoin="round" stroke-miterlimit="10" stroke-width="50" transform="matrix(.1 0 0 -.1 0 425.2)"/></g>
  <g id="change3_2"><path d="m1823.6 2465.1l37.9-1457.7" fill="#faf5a3" stroke="#000000" stroke-linecap="round" stroke-linejoin="round" stroke-miterlimit="10" stroke-width="50" transform="matrix(.1 0 0 -.1 0 425.2)"/></g>
  <g id="change3_3"><path d="m2026.7 2464.1l17.6-1471.9" fill="#faf5a3" stroke="#000000" stroke-linecap="round" stroke-linejoin="round" stroke-miterlimit="10" stroke-width="50" transform="matrix(.1 0 0 -.1 0 425.2)"/></g>
  <g id="change3_4"><path d="m2242 2449.9l-19-1457.7" fill="#faf5a3" stroke="#000000" stroke-linecap="round" stroke-linejoin="round" stroke-miterlimit="10" stroke-width="50" transform="matrix(.1 0 0 -.1 0 425.2)"/></g>
  <g id="change3_5"><path d="m2428.2 2464.1l-37.9-1457.7" fill="#faf5a3" stroke="#000000" stroke-linecap="round" stroke-linejoin="round" stroke-miterlimit="10" stroke-width="50" transform="matrix(.1 0 0 -.1 0 425.2)"/></g>
  <g id="change3_6"><path d="m2628.9 2465.1l-37.9-1459.7" fill="#faf5a3" stroke="#000000" stroke-linecap="round" stroke-linejoin="round" stroke-miterlimit="10" stroke-width="50" transform="matrix(.1 0 0 -.1 0 425.2)"/></g>
  <g id="change3_7"><path d="m244.9 250.18c0 17.94-14.54 32.48-32.47 32.48-17.94 0-32.48-14.54-32.48-32.48 0-17.93 14.54-32.47 32.48-32.47 17.93 0 32.47 14.54 32.47 32.47" fill="#faf5a3"/></g>
  <path d="m2449 1750.2c0-179.4-145.4-324.8-324.7-324.8-179.4 0-324.8 145.4-324.8 324.8 0 179.3 145.4 324.7 324.8 324.7 179.3 0 324.7-145.4 324.7-324.7zm0 0" fill="none" stroke="#000000" stroke-linecap="round" stroke-linejoin="round" stroke-miterlimit="10" stroke-width="50" transform="matrix(.1 0 0 -.1 0 425.2)"/>
 </g>
</svg>