<?xml version="1.0" encoding="UTF-8" standalone="no"?><svg xmlns="http://www.w3.org/2000/svg" xmlns:xlink="http://www.w3.org/1999/xlink" fill="#000000" height="429.9" preserveAspectRatio="xMidYMid meet" version="1" viewBox="0.0 0.1 430.0 429.9" width="430" zoomAndPan="magnify"><g><g fill="#ffffff" id="change1_1"><path d="M396.6,170.2h-9.2c-5.1,0-9.6-3.3-11.2-8.1c-2.7-8.1-5.9-16-9.8-23.5c-2.3-4.6-1.5-10.1,2.2-13.8l6.6-6.6 c13-13,13-34.3,0-47.3L359,54.9c-13-13-34.2-13-47.3,0l-6.6,6.6c-3.6,3.6-9.2,4.5-13.7,2.2c-7.5-3.8-15.4-7.1-23.5-9.8 c-4.9-1.6-8.1-6.1-8.1-11.2v-9.2c0-18.4-15-33.4-33.4-33.4h-22.7c-18.4,0-33.4,15-33.4,33.4v9.2c0,5.1-3.3,9.6-8.1,11.2 c-8.1,2.7-16,5.9-23.5,9.8c-4.6,2.3-10.1,1.5-13.8-2.2l-6.6-6.6c-13-13-34.3-13-47.3,0L54.9,71c-13,13-13,34.3,0,47.3l6.6,6.6 c3.6,3.6,4.5,9.1,2.2,13.7c-3.8,7.5-7.1,15.4-9.8,23.5c-1.6,4.9-6.1,8.1-11.2,8.1h-9.2C15,170.2,0,185.2,0,203.7v22.7 c0,18.4,15,33.4,33.4,33.4h9.2c5.1,0,9.6,3.3,11.2,8.1c2.7,8.1,5.9,16,9.8,23.5c2.3,4.6,1.5,10.1-2.2,13.8l-6.6,6.6 c-13,13-13,34.3,0,47.3L71,375.1c13,13,34.2,13,47.3,0l6.6-6.6c3.6-3.6,9.2-4.5,13.7-2.2c7.5,3.8,15.4,7.1,23.5,9.8 c4.9,1.6,8.1,6.1,8.1,11.2v9.3c0,18.4,15,33.4,33.4,33.4h22.7c18.4,0,33.4-15,33.4-33.4v-9.3c0-5.1,3.3-9.6,8.1-11.2 c8.1-2.7,16-5.9,23.5-9.8c4.6-2.3,10.1-1.5,13.8,2.2l6.6,6.6c13,13,34.3,13,47.3,0l16.1-16.1c13-13,13-34.3,0-47.3l-6.6-6.6 c-3.6-3.6-4.5-9.1-2.2-13.7c3.8-7.5,7.1-15.4,9.8-23.5c1.6-4.9,6.1-8.1,11.2-8.1h9.2c18.4,0,33.4-15,33.4-33.4v-22.7 C430,185.2,415,170.2,396.6,170.2z M408.5,226.3c0,6.6-5.4,11.9-11.9,11.9h-9.2c-14.4,0-27.1,9.2-31.6,22.9 c-2.3,7-5.2,13.9-8.5,20.5c-6.5,12.9-4.1,28.4,6.1,38.7l6.6,6.6c4.7,4.7,4.7,12.2,0,16.9l-16.1,16.1c-4.7,4.7-12.3,4.6-16.9,0 l-6.6-6.6c-10.2-10.2-25.7-12.7-38.7-6.1c-6.6,3.3-13.4,6.2-20.5,8.5c-13.7,4.5-22.9,17.2-22.9,31.6v9.3c0,6.6-5.4,11.9-11.9,11.9 h-22.7c-6.6,0-11.9-5.4-11.9-11.9v-9.3c0-14.4-9.2-27.1-22.9-31.6c-7-2.3-13.9-5.2-20.5-8.5c-4.8-2.4-10-3.6-15.1-3.6 c-8.6,0-17.1,3.4-23.5,9.8l-6.6,6.6c-4.7,4.6-12.2,4.7-16.9,0l-16.1-16.1c-4.7-4.7-4.7-12.2,0-16.9l6.6-6.6 c10.2-10.2,12.7-25.7,6.1-38.7c-3.3-6.6-6.2-13.4-8.5-20.5c-4.5-13.7-17.2-22.9-31.6-22.9h-9.2c-6.6,0-11.9-5.4-11.9-11.9v-22.7 c0-6.6,5.4-11.9,11.9-11.9h9.2c14.4,0,27.1-9.2,31.6-22.9c2.3-7,5.2-13.9,8.5-20.5c6.5-12.9,4.1-28.4-6.1-38.7l-6.6-6.6 c-4.7-4.7-4.7-12.2,0-16.9l16.1-16.1c4.7-4.7,12.2-4.7,16.9,0l6.6,6.6c10.2,10.2,25.8,12.7,38.7,6.1c6.6-3.3,13.4-6.2,20.5-8.5 c13.7-4.5,22.9-17.2,22.9-31.6v-9.2c0-6.6,5.4-11.9,11.9-11.9h22.7c6.6,0,11.9,5.4,11.9,11.9v9.2c0,14.4,9.2,27.1,22.9,31.6 c7,2.3,13.9,5.2,20.5,8.5c12.9,6.5,28.4,4.1,38.7-6.1l6.6-6.6c4.6-4.7,12.2-4.7,16.9,0l16.1,16.1c4.7,4.7,4.7,12.2,0,16.9 l-6.6,6.6c-10.2,10.2-12.7,25.7-6.1,38.7c3.3,6.6,6.2,13.4,8.5,20.5c4.5,13.7,17.2,22.9,31.6,22.9h9.2c6.6,0,11.9,5.4,11.9,11.9 V226.3z" fill="inherit"/><path d="M215,102.1c-62.2,0-112.9,50.6-112.9,112.9S152.8,327.9,215,327.9S327.9,277.2,327.9,215 S277.2,102.1,215,102.1z M215,306.4c-50.4,0-91.4-41-91.4-91.4s41-91.4,91.4-91.4s91.4,41,91.4,91.4S265.4,306.4,215,306.4z" fill="inherit"/></g></g></svg>