<?xml version="1.0" encoding="utf-8" standalone="no"?><!-- Generator: Adobe Illustrator 15.0.0, SVG Export Plug-In . SVG Version: 6.00 Build 0)  --><svg xmlns="http://www.w3.org/2000/svg" xmlns:xlink="http://www.w3.org/1999/xlink" enable-background="new 0 0 3735.311 2872.794" fill="#000000" height="2872.794px" id="Layer_1" version="1.1" viewBox="0 0 3735.311 2872.794" width="3735.311px" x="0px" xml:space="preserve" y="0px">
<g id="change1">
	<g>
		<path d="M770.698,2101.703c-181.528,0-335.808-42.084-461.41-126.22C34.009,1791.063,5.76,1475.337,4.69,1461.993    c-24.844-331.782,49.104-589.822,219.782-767.266c244.206-253.887,593.979-244.422,608.816-243.812    c36.436,1.307,64.92,31.897,63.613,68.344c-1.306,36.397-31.68,64.427-68.227,63.617c-4.624-0.222-308.012-6.575-509.958,204.351    c-142.871,149.225-204.229,372.803-182.38,664.561c0.184,2.127,25.461,266.955,247.812,414.907    c199.396,132.657,495.284,137.428,879.43,14.17c34.726-11.121,71.901,7.964,83.031,42.681    c11.146,34.72-7.969,71.909-42.688,83.045C1106.287,2070.017,928.234,2101.703,770.698,2101.703z" fill="#ffffff"/>
	</g>
	<g>
		<path d="M1850.915,2320.85c-253.935,0.034-437.211-158.536-440.12-161.12    c-189.12-158.232-279.577-330.365-267.421-510.341c17.685-261.619,249.526-452.026,334.927-513.646V884.295    c0-36.459,29.562-66.023,66.024-66.023c36.46,0,66.015,29.564,66.015,66.023v286.216c0,22.675-11.644,43.774-30.845,55.866    c-2.804,1.771-288.067,185.28-304.405,432.41c-8.952,135.312,65.711,270.207,221.897,400.928    c16.493,14.428,377.099,321.756,764.613-65.875c29.285-44.248,197.411-281.104,467.881-327.27    c174.83-29.851,351.977,25.937,526.486,165.845c28.447,22.804,33.028,64.359,10.224,92.81    c-22.809,28.448-64.353,33.024-92.812,10.219c-143.481-115.021-285.056-161.688-420.839-138.863    c-233.437,39.349-381.819,271.579-383.283,273.919c-2.55,4.062-5.608,7.93-8.961,11.347    C2180.938,2263.777,2003.199,2320.838,1850.915,2320.85z" fill="#ffffff"/>
	</g>
	<g>
		<path d="M1967.253,1236.53h-422.929c-36.462,0-66.024-29.56-66.024-66.02c0-36.462,29.562-66.024,66.024-66.024    h422.929c36.46,0,66.024,29.562,66.024,66.024C2033.278,1206.971,2003.713,1236.53,1967.253,1236.53z" fill="#ffffff"/>
	</g>
	<g>
		<path d="M3247.52,2322.448c-134.182,0-293.642-39.074-477.354-117.149c-33.553-14.268-49.192-53.049-34.928-86.588    c14.263-33.56,53.031-49.179,86.593-34.943c301.226,128.077,517.794,141.612,643.72,40.277    c163.842-131.833,145.24-449.719,124.246-561.082c-32.35-180.238-104.382-301.803-214.198-361.891    c-181.44-99.291-415.199-4.726-417.541-3.761c-1.479,0.615-3.117,1.23-4.632,1.725c-456.655,151.016-653.465-42.306-661.635-50.61    c-25.548-26.015-25.175-67.809,0.847-93.358c25.783-25.335,67.104-25.209,92.722,0.197    c7.594,7.172,155.734,140.325,524.544,19.098c31.487-12.652,299.954-113.893,528.165,10.384    c147.113,80.056,241.848,232.926,281.59,454.312c3.58,18.954,87.055,479.941-171.33,687.873    C3469.182,2290.61,3368.656,2322.43,3247.52,2322.448z" fill="#ffffff"/>
	</g>
	<g>
		<path d="M2787.477,2804.338c-18.112,0-36.155-7.415-49.201-21.971    c-393.244-438.998-285.553-645.926-271.976-668.075l112.586,68.99c0,0,0.714-0.938,1.663-2.955    c-0.697,1.487-66.694,153.611,256.084,513.938c24.331,27.162,22.032,68.908-5.128,93.234    C2818.903,2798.78,2803.161,2804.338,2787.477,2804.338z" fill="#ffffff"/>
	</g>
	<g>
		<path d="M2582.448,2872.794c-18.915,0-37.697-8.09-50.75-23.755c-142.098-170.521-665.188-534.507-670.455-538.164    c-29.948-20.795-37.374-61.946-16.579-91.89c20.802-29.935,61.938-37.315,91.885-16.591    c22.092,15.349,543.1,377.933,696.578,562.119c23.348,28.014,19.559,69.629-8.455,92.983    C2612.332,2867.782,2597.346,2872.794,2582.448,2872.794z" fill="#ffffff"/>
	</g>
	<g>
		<path d="M1625.49,1924.369c-6.278,0-12.652-0.905-18.965-2.79c-34.866-10.476-54.703-47.114-44.314-82.007    c2.987-10.027,75.358-246.842,264.478-335.815c98.314-46.21,207.478-44.421,324.453,5.272c3.908,1.676,7.646,3.705,11.163,6.077    c1.862,1.255,198.96,129.444,281.485,38.379c24.496-27.03,66.251-29.065,93.253-4.579c27.021,24.484,29.067,66.229,4.581,93.26    c-125.962,138.943-337.8,58.315-447.642-13.906c-79.532-32.595-148.463-34.301-210.622-5.227    c-135.487,63.364-194.064,252.45-194.641,254.366C1680.089,1905.93,1653.853,1924.369,1625.49,1924.369z" fill="#ffffff"/>
	</g>
	<g>
		<path d="M2022.793,1602.567c-17.652,0-35.269-7.047-48.26-20.957c-118.569-126.95,72.895-332.22,112.481-372.062    c25.688-25.854,67.494-26.032,93.367-0.322c25.854,25.676,26.001,67.439,0.356,93.324l0,0    c-75.812,76.629-126.073,171.405-109.704,188.925c24.88,26.646,23.459,68.424-3.187,93.311    C2055.118,1596.681,2038.939,1602.567,2022.793,1602.567z" fill="#ffffff"/>
	</g>
	<g>
		<path d="M1208.405,1112.818c-4.32,0-8.691-0.435-13.081-1.301c-107.899-21.694-180.143-71.102-214.72-146.874    c-57.664-126.334,18.931-267.917,27.847-283.653c18-31.688,58.309-42.809,90.007-24.853    c31.646,17.954,42.791,58.108,24.965,89.797c-14.961,26.868-48.146,108.703-22.554,164.215    c16.092,34.882,56.628,59.071,120.468,71.902c35.753,7.188,58.908,41.99,51.715,77.741    C1266.757,1091.159,1239.195,1112.818,1208.405,1112.818z" fill="#ffffff"/>
	</g>
	<g>
		<path d="M674.831,1739.151c-29.834,0-56.889-20.354-64.144-50.641    c-169.457-706.944,396.866-852.248,402.605-853.637c35.477-8.591,71.11,13.266,79.662,48.696    c8.543,35.378-13.149,70.969-48.479,79.607c-19.14,4.835-443.34,119.002-305.389,694.545    c8.499,35.459-13.357,71.098-48.818,79.592C685.105,1738.555,679.924,1739.151,674.831,1739.151z" fill="#ffffff"/>
	</g>
	<g>
		<path d="M530.444,1440.992c-73.695,0-134.783-20.807-182.494-62.33    c-117.879-102.626-96.162-289.323-95.179-297.221c4.504-36.186,37.418-61.82,73.661-57.37    c36.121,4.497,61.774,37.364,57.395,73.469c-4.058,34.815-2.768,135.236,51.125,181.785    c39.472,34.093,106.038,38.896,197.864,14.263c35.274-9.491,71.421,11.461,80.87,46.663c9.438,35.219-11.459,71.424-46.666,80.866    C617.585,1434.385,572.006,1440.992,530.444,1440.992z" fill="#ffffff"/>
	</g>
	<g>
		<path d="M2039.87,993.225c-27.918,0-53.858-17.843-62.845-45.86c-39.866-124.13-105.263-209.942-194.39-255.011    c-142.942-72.289-305.172-19.309-306.8-18.76c-8.655,2.904-18.017,4.062-27.194,3.225c-48.713-4.433-90.451-26.438-120.702-63.639    c-70.195-86.343-56.079-228.701-54.242-244.646c4.181-36.215,36.816-62.202,73.146-58.025    c36.174,4.176,62.133,36.847,58.039,73.002c-3.648,33.139-2.168,112.504,25.603,146.482c5.6,6.854,11.825,11.136,19.818,13.46    c54.303-14.939,226.886-51.674,390.492,30.333c122.547,61.461,210.682,173.569,261.946,333.219    c11.146,34.72-7.959,71.891-42.67,83.04C2053.359,992.207,2046.557,993.225,2039.87,993.225z" fill="#ffffff"/>
	</g>
	<g>
		<path d="M1310.644,819.758c-16.692,0-33.387-6.289-46.247-18.892c-26.019-25.553-26.412-67.344-0.871-93.377    L1389.8,578.802c25.541-26.015,67.349-26.401,93.367-0.888c26.02,25.55,26.42,67.342,0.879,93.374l-126.282,128.688    C1344.841,813.148,1327.748,819.758,1310.644,819.758z" fill="#ffffff"/>
	</g>
	<g>
		<path d="M1967.332,839.455c-3.099,0-6.253-0.229-9.414-0.682c-36.094-5.155-61.173-38.603-56.026-74.689    c33.491-234.459,400.924-209.524,442.688-205.981c36.323,3.145,63.229,35.143,60.096,71.454    c-3.136,36.3-35.042,63.025-71.39,60.106l0,0c-92.617-7.719-288.043,4.707-300.67,93.084    C2027.905,815.678,1999.657,839.455,1967.332,839.455z" fill="#ffffff"/>
	</g>
	<g>
		<path d="M2680.248,1236.53c-16.111,0-32.256-5.854-44.978-17.701c-135.463-126.124-14.892-332.326,77.709-434.294    c24.515-26.997,66.26-28.996,93.265-4.478c26.968,24.5,28.997,66.197,4.545,93.197l0,0    c-34.05,37.702-148.358,190.451-85.539,248.93c26.689,24.857,28.179,66.621,3.335,93.311    C2715.575,1229.472,2697.932,1236.53,2680.248,1236.53z" fill="#ffffff"/>
	</g>
	<g>
		<path d="M786.286,717.677c-5.54,0-11.164-0.709-16.781-2.178c-35.269-9.235-56.368-45.325-47.137-80.591    c5.435-20.744,137.864-508.2,556.754-537.615c1.784-0.128,3.58-0.145,5.363-0.16c13.323,0.146,327.927,6.352,478.322,243.614    c19.515,30.804,10.38,71.584-20.41,91.114c-30.811,19.523-71.598,10.368-91.112-20.42    C1544.629,243.184,1311.28,230.16,1285.357,229.24c-323.128,25.191-434.173,434.987-435.253,439.132    C842.328,698.027,815.577,717.677,786.286,717.677z" fill="#ffffff"/>
	</g>
	<g>
		<path d="M2433.157,379.174c-21.342,0-42.276-10.317-55-29.401c-86.233-129.347-188.822-201.805-304.917-215.326    c-223.997-25.95-436.453,169.338-438.578,171.308c-26.639,24.856-68.385,23.486-93.28-3.108    c-24.89-26.582-23.6-68.264,2.95-93.198c10.397-9.771,257.984-238.974,543.362-206.253    c156.718,17.991,291.412,109.944,400.332,273.336c20.228,30.337,12.026,71.328-18.313,91.556    C2458.462,375.597,2445.741,379.174,2433.157,379.174z" fill="#ffffff"/>
	</g>
	<g>
		<path d="M3387.484,993.225c-27.78,0-53.616-17.65-62.724-45.474c-73.226-223.35-199.107-380.122-374.157-465.951    c-331.634-162.57-733.336-22.693-737.358-21.262c-34.352,12.205-72.11-5.686-84.354-40.021    c-12.234-34.349,5.677-72.11,40.03-84.347c18.549-6.61,458.721-159.737,839.817,27.062    c208.225,102.096,356.766,284.923,441.485,543.386c11.364,34.653-7.522,71.955-42.171,83.302    C3401.225,992.156,3394.293,993.225,3387.484,993.225z" fill="#ffffff"/>
	</g>
	<g>
		<path d="M3621.902,1487.221c-3.49,0-7.026-0.288-10.597-0.855c-35.998-5.803-60.469-39.698-54.668-75.691    c24.173-149.932,2.357-261.006-64.849-330.122c-108.11-111.185-308.403-88.167-310.379-87.91    c-36.277,4.656-69.334-20.649-74.123-56.786c-4.789-36.151,20.628-69.324,56.776-74.128    c10.823-1.418,266.795-33.27,422.398,126.774c97.887,100.677,131.717,249.787,100.543,443.19    C3681.771,1464.123,3653.73,1487.221,3621.902,1487.221z" fill="#ffffff"/>
	</g>
</g>
</svg>