<?xml version="1.0" encoding="utf-8" standalone="no"?><!-- Generator: Adobe Illustrator 15.0.0, SVG Export Plug-In . SVG Version: 6.00 Build 0)  --><svg xmlns="http://www.w3.org/2000/svg" xmlns:xlink="http://www.w3.org/1999/xlink" enable-background="new 0 0 399.311 349.954" fill="#000000" height="349.954px" id="Layer_1" version="1.1" viewBox="0 0 399.311 349.954" width="399.311px" x="0px" xml:space="preserve" y="0px">
<g id="Layer_X">
	<g id="change1">
		<path d="M391.023,333.377c-127.579,0-255.157,0-382.735,0c2.763,2.763,5.526,5.524,8.289,8.289    c0-86.569,0-173.132,0-259.701c-2.763,2.762-5.526,5.525-8.289,8.288c127.578,0,255.156,0,382.735,0    c-2.763-2.763-5.526-5.526-8.288-8.288c0,86.568,0,173.131,0,259.701c0,10.688,16.575,10.688,16.575,0    c0-86.569,0-173.132,0-259.701c0-4.517-3.771-8.289-8.287-8.289c-127.579,0-255.157,0-382.735,0C3.772,73.677,0,77.449,0,81.966    c0,86.568,0,173.131,0,259.701c0,4.516,3.772,8.287,8.288,8.287c127.578,0,255.156,0,382.735,0    C401.713,349.954,401.713,333.377,391.023,333.377z" fill="#ffffff"/>
		<path d="M112.308,177.282c-33.37,0-66.739,0-100.108,0c-2.892,0-2.892,16.576,0,16.576    c33.369,0,66.738,0,100.108,0C115.199,193.858,115.199,177.282,112.308,177.282L112.308,177.282z" fill="#ffffff"/>
		<path d="M145.687,229.866H101.3v-79.22h44.387V229.866z M118.977,212.188h9.034v-43.865h-9.034V212.188z" fill="#ffffff"/>
		<path d="M300.403,229.866h-44.389v-79.22h44.389V229.866z M273.692,212.188h9.033v-43.865h-9.033V212.188z" fill="#ffffff"/>
		<path d="M142.375,76.44c0-22.717,0-45.434,0-68.152c-2.764,2.763-5.526,5.526-8.288,8.288    c43.588,0,87.184,0,130.773,0c-2.764-2.762-5.526-5.525-8.291-8.288c0,22.718,0,45.435,0,68.152c0,10.689,16.578,10.689,16.578,0    c0-22.717,0-45.434,0-68.152c0-4.517-3.771-8.288-8.287-8.288c-43.59,0-87.186,0-130.773,0c-4.517,0-8.29,3.771-8.29,8.288    c0,22.718,0,45.435,0,68.152C125.797,87.129,142.375,87.129,142.375,76.44L142.375,76.44z" fill="#ffffff"/>
		<path d="M266.132,177.282c-42.094,0-84.183,0-126.279,0c-3.647,0-3.647,16.576,0,16.576    c42.096,0,84.185,0,126.279,0C269.78,193.858,269.78,177.282,266.132,177.282L266.132,177.282z" fill="#ffffff"/>
		<path d="M393.792,177.282c-33.266,0-66.527,0-99.795,0c-2.887,0-2.887,16.576,0,16.576c33.268,0,66.529,0,99.795,0    C396.677,193.858,396.677,177.282,393.792,177.282L393.792,177.282z" fill="#ffffff"/>
	</g>
</g>
</svg>